<svg height="512" width="512" xmlns="http://www.w3.org/2000/svg"><g fill="#6c757d"><path d="M0 0v512h512V0H0zm489.471 489.475H22.525V22.529H489.47v466.946z"/><path d="M124.415 123.684c0-1.765.303-2.466 1.816-2.466 11.512-.354 34.239-.705 57.265-.705 59.38 0 82.03 34.552 82.333 75.415 0 56.004-41.739 77.24-86.273 77.24h-18.787v80.017c0 2.116-.603 2.821-2.12 2.821h-32.115c-1.513 0-2.12-.705-2.12-2.467V123.684zM160.769 239c2.428.351 6.97.701 19.697.701 23.931 0 46.957-6.821 46.957-42.047 0-28.18-15.449-42.654-43.927-42.654-11.816 0-20.299.351-22.727.705V239zm180.679-26.329c-14.589 0-18.456 9.123-18.456 15.816 0 8.457 3.867 13.035 26.195 23.603 30.663 14.795 43.762 27.828 43.762 53.188 0 35.227-22.924 55.269-55.672 55.269-15.777 0-35.683-1.503-48.188-10.663-1.193-.704-1.786-1.76-1.786-3.524v-32.406c0-1.761 1.192-2.466 2.085-1.761 15.479 11.624 32.744 14.928 48.223 14.928 13.697 0 18.457-9.129 18.457-16.877 0-9.157-3.308-14.444-24.743-24.657-30.663-14.795-43.429-27.509-43.429-53.223 0-28.534 21.398-52.103 56.527-52.103 18.157 0 30.957.487 39.294 6.12 1.487 1.411 1.786 2.465 1.786 4.582v28.883c0 2.112-1.192 3.171-2.679 2.112-10.718-7.043-25.897-9.287-41.376-9.287z"/></g></svg>