<?xml version="1.0" standalone="no"?>
<!DOCTYPE svg PUBLIC "-//W3C//DTD SVG 20010904//EN"
 "http://www.w3.org/TR/2001/REC-SVG-20010904/DTD/svg10.dtd">
<svg version="1.0" xmlns="http://www.w3.org/2000/svg"
 width="400.000000pt" height="400.000000pt" viewBox="0 0 400.000000 400.000000"
 preserveAspectRatio="xMidYMid meet">
<metadata>
Created by potrace 1.14, written by Peter Selinger 2001-2017
</metadata>
<g transform="translate(0.000000,400.000000) scale(0.100000,-0.100000)"
fill="#6C757D" stroke="none">
<path d="M864 3523 c-38 -43 -71 -80 -74 -83 -5 -5 -106 -120 -171 -195 -15
-16 -74 -84 -133 -150 -87 -99 -105 -124 -101 -145 3 -14 70 -419 150 -900 80
-481 148 -887 151 -903 l6 -27 154 0 154 0 0 -60 0 -60 139 0 139 0 18 -120
c9 -66 21 -124 24 -131 8 -11 1079 -390 1089 -385 10 5 1206 718 1208 720 2 2
-83 166 -187 367 -104 200 -190 367 -190 372 0 4 68 78 152 165 84 86 169 175
190 197 l38 40 -134 315 c-73 173 -166 403 -206 510 -41 107 -76 198 -79 202
-3 4 -189 41 -413 83 l-407 77 -34 -29 c-19 -15 -77 -67 -129 -115 -53 -49
-98 -88 -101 -88 -4 0 -18 39 -33 88 -14 48 -27 88 -28 89 0 0 -244 53 -541
118 -297 64 -549 118 -561 121 -16 4 -36 -12 -90 -73z m1497 -793 c79 -24 163
-75 153 -93 -30 -50 -87 -128 -92 -125 -4 2 -38 18 -75 37 -55 28 -80 34 -132
35 -54 1 -67 -3 -89 -23 -42 -40 -33 -82 23 -110 20 -10 78 -30 129 -45 173
-49 240 -100 262 -198 27 -119 -24 -224 -132 -277 -140 -68 -335 -44 -480 61
l-48 34 56 66 56 67 40 -29 c145 -105 352 -88 324 26 -9 34 -37 49 -161 85
-167 48 -237 91 -264 162 -18 46 -13 157 8 203 23 52 93 111 151 129 68 21
196 19 271 -5z m-684 -19 c111 -49 170 -154 161 -282 -7 -90 -39 -152 -103
-201 -65 -49 -138 -68 -263 -68 l-102 0 0 -125 0 -125 -95 0 -95 0 0 416 0
415 223 -3 c208 -3 225 -4 274 -27z m261 -1398 l3 -63 -381 0 -380 0 0 58 c0
32 3 62 7 65 4 4 173 6 377 5 l371 -3 3 -62z"/>
<path d="M1370 2445 l0 -125 73 0 c140 1 195 30 204 111 6 58 -9 94 -49 119
-27 16 -51 20 -130 20 l-98 0 0 -125z"/>
</g>
</svg>
