<svg xmlns="http://www.w3.org/2000/svg" version="1.0" width="579" height="326"><rect width="100%" height="100%" fill="none"/><path d="M102 71.7c-1.9.2-6.6 1.3-10.4 2.4-6.3 1.9-9.5 2-41.2 1.9L16 75.9V116h16v136H8v40h98v-40H77v-15.6c0-14.5.1-15.6 1.8-14.8.9.4 5.8 1.8 10.7 3.1 8.1 2.2 10.4 2.4 23.5 2 16.3-.6 22.5-2.1 33.8-8.2 9.1-5 15.7-10.3 22-17.8 6.3-7.3 13.4-21.4 15.9-31.2 2.2-9 2.4-30.7.4-38.5-5.8-22.6-20.9-41.8-40.4-51.3-5-2.5-12.1-5.2-15.7-6.1-7-1.7-21.3-2.7-27-1.9zm20.2 43.6c10.8 4.9 18.1 15.4 19.6 27.7 2.1 18.3-5.1 33.1-19.6 40.2-5.9 2.9-7.6 3.3-15.2 3.3s-9.2-.3-15.2-3.3c-4.2-2-8.2-5-10.7-7.9l-4.1-4.6v-19.9c0-21.8.2-22.9 6.2-28.4 8.7-8.1 14.9-10.5 25.8-10.1 5.5.3 9.1 1 13.2 3zM458 72.1c-15.1 2-29.6 9-41.4 20-9.1 8.5-15.7 18.8-19.9 30.7-5.6 16.1-4.9 39.1 1.7 55.3 9.2 22.7 27.3 38.3 52.1 45 6 1.6 11.2 2.2 20.5 2.2 13 .2 19.5-1.1 28.4-5.4 2.2-1 4.2-1.7 4.4-1.4 1.2 1.1-2.1 15.3-4.6 19.9-6.2 11.3-20.4 16.1-40.7 13.6-10.7-1.3-19.2-3.9-29.7-9.1l-7.6-3.8-5.8 10.2c-3.1 5.6-7.3 12.8-9.2 16-4.1 6.9-4.2 6.7 6.9 12.6 9.9 5.4 22.7 9.7 34.1 11.7 12.9 2.2 37.1 1.5 48.3-1.5 22.1-5.8 39.4-20.3 47.2-39.4 5.2-12.7 5.3-15 5.3-96.8V76h-21.9c-14.7 0-22.1.4-22.3 1.1-.2.7-3 .1-7.8-1.5-12.6-4.2-24.4-5.3-38-3.5zm30.9 43.9c4.5 2.4 7.7 5.1 10.8 9l4.3 5.5v37.1l-4.9 5.5c-2.9 3.3-7.2 6.6-10.7 8.4-5.3 2.7-6.9 3-14.9 3-8.2 0-9.7-.3-15.7-3.3-12.1-5.9-18.9-16.6-19.6-30.8-.5-10.1 1.4-17.1 6.6-23.9 7.5-9.9 17.7-14.7 30.2-14.2 6.3.3 8.6.9 13.9 3.7zM197 96v20h18.8l.5 30.2c.4 26.8.7 31.2 2.6 38.2 7.1 26.6 28 41.8 57.5 41.8 14.9 0 27-3.4 36.8-10.3 1.4-1.1 2.9-1.9 3.2-1.9.3 0 .6 2.5.6 5.5v5.5h64v-40h-18V76h-71v40h24v28.2c0 26.7-.1 28.4-2.1 32.6-2.7 5.5-7.7 10.5-13.2 13.3-9.5 4.9-24.9 1.5-31.2-6.7-5.3-7-5.5-8.7-5.5-60.1V76h-67v20z" fill="#6c757d"/></svg>