<svg xmlns="http://www.w3.org/2000/svg" version="1.0" width="579.000000" height="326.000000" preserveAspectRatio="xMidYMid meet"><rect id="backgroundrect" width="100%" height="100%" x="0" y="0" fill="none" stroke="none"/>
<metadata>
Created by potrace 1.16, written by Peter Selinger 2001-2019
</metadata>

<g class="currentLayer" style=""><title>Layer 1</title><g transform="translate(0,326) scale(0.10000000149011612,-0.10000000149011612) " fill="#6c757d" stroke="none" id="svg_1" class="selected" fill-opacity="1">
<path d="M1020 2543 c-19 -2 -66 -13 -104 -24 -63 -19 -95 -20 -412 -19 l-344 1 0 -201 0 -200 80 0 80 0 0 -680 0 -680 -120 0 -120 0 0 -200 0 -200 490 0 490 0 0 200 0 200 -145 0 -145 0 0 156 c0 145 1 156 18 148 9 -4 58 -18 107 -31 81 -22 104 -24 235 -20 163 6 225 21 338 82 91 50 157 103 220 178 63 73 134 214 159 312 22 90 24 307 4 385 -58 226 -209 418 -404 513 -50 25 -121 52 -157 61 -70 17 -213 27 -270 19z m202 -436 c108 -49 181 -154 196 -277 21 -183 -51 -331 -196 -402 -59 -29 -76 -33 -152 -33 -76 0 -92 3 -152 33 -42 20 -82 50 -107 79 l-41 46 0 199 c0 218 2 229 62 284 87 81 149 105 258 101 55 -3 91 -10 132 -30z" id="svg_2" fill="#6c757d" fill-opacity="1"/>
<path d="M4580 2539 c-151 -20 -296 -90 -414 -200 -91 -85 -157 -188 -199 -307 -56 -161 -49 -391 17 -553 92 -227 273 -383 521 -450 60 -16 112 -22 205 -22 130 -2 195 11 284 54 22 10 42 17 44 14 12 -11 -21 -153 -46 -199 -62 -113 -204 -161 -407 -136 -107 13 -192 39 -297 91 l-76 38 -58 -102 c-31 -56 -73 -128 -92 -160 -41 -69 -42 -67 69 -126 99 -54 227 -97 341 -117 129 -22 371 -15 483 15 221 58 394 203 472 394 52 127 53 150 53 968 l0 759 -219 0 c-147 0 -221 -4 -223 -11 -2 -7 -30 -1 -78 15 -126 42 -244 53 -380 35z m309 -439 c45 -24 77 -51 108 -90 l43 -55 0 -186 0 -185 -49 -55 c-29 -33 -72 -66 -107 -84 -53 -27 -69 -30 -149 -30 -82 0 -97 3 -157 33 -121 59 -189 166 -196 308 -5 101 14 171 66 239 75 99 177 147 302 142 63 -3 86 -9 139 -37z" id="svg_3" fill="#6c757d" fill-opacity="1"/>
<path d="M1970 2300 l0 -200 94 0 94 0 5 -302 c4 -268 7 -312 26 -382 71 -266 280 -418 575 -418 149 0 270 34 368 103 14 11 29 19 32 19 3 0 6 -25 6 -55 l0 -55 320 0 320 0 0 200 0 200 -90 0 -90 0 0 545 0 545 -355 0 -355 0 0 -200 0 -200 120 0 120 0 0 -282 c0 -267 -1 -284 -21 -326 -27 -55 -77 -105 -132 -133 -95 -49 -249 -15 -312 67 -53 70 -55 87 -55 601 l0 473 -335 0 -335 0 0 -200z" id="svg_4" fill="#6c757d" fill-opacity="1"/>
</g></g></svg>